<?xml version="1.0" encoding="UTF-8"?>
<svg id="uuid-e31ba1cd-0e59-4c95-9c9b-1c4a09187040" data-name="Layer 1" xmlns="http://www.w3.org/2000/svg" width="847.47" height="264.46" xmlns:xlink="http://www.w3.org/1999/xlink" viewBox="0 0 847.47 264.46">
  <defs>
    <linearGradient id="uuid-e8dd6871-946e-47d2-9944-621513d9e615" x1="-257.6" y1="-40.98" x2="-256.61" y2="-40.98" gradientTransform="translate(44324.56 50978.94) rotate(39.95) scale(258.72)" gradientUnits="userSpaceOnUse">
      <stop offset="0" stop-color="#fff"/>
      <stop offset=".1" stop-color="#e7e8e6"/>
      <stop offset=".1" stop-color="#cdd0d0"/>
      <stop offset=".2" stop-color="#b5bbbd"/>
      <stop offset=".2" stop-color="#a5acaf"/>
      <stop offset=".3" stop-color="#9ba3a7"/>
      <stop offset=".3" stop-color="#98a0a4"/>
      <stop offset=".4" stop-color="#828a8f"/>
      <stop offset=".5" stop-color="#667075"/>
      <stop offset=".6" stop-color="#535c63"/>
      <stop offset=".7" stop-color="#475158"/>
      <stop offset=".8" stop-color="#434d54"/>
      <stop offset="1" stop-color="#475157"/>
    </linearGradient>
    <linearGradient id="uuid-c8e533b0-b3f4-4a1c-9a14-5b16f4e45aee" x1="-257.51" y1="-40.97" x2="-256.52" y2="-40.97" gradientTransform="translate(41524.01 47896.04) rotate(40.03) scale(242.85)" gradientUnits="userSpaceOnUse">
      <stop offset="0" stop-color="#0b1f2a"/>
      <stop offset=".2" stop-color="#333f47"/>
      <stop offset=".5" stop-color="#777f84"/>
      <stop offset=".5" stop-color="#81898d"/>
      <stop offset=".7" stop-color="#b3b8b8"/>
      <stop offset=".8" stop-color="#d2d5d3"/>
      <stop offset=".8" stop-color="#dee0dd"/>
      <stop offset="1" stop-color="#fbfbfb"/>
    </linearGradient>
    <linearGradient id="uuid-350a2ddd-88ab-4782-94a2-3ed1bef51500" x1="-260.21" y1="-40.49" x2="-259.22" y2="-40.49" gradientTransform="translate(-13297.86 -68141.27) rotate(-109.99) scale(264.71)" gradientUnits="userSpaceOnUse">
      <stop offset="0" stop-color="#e1e3e1" stop-opacity=".4"/>
      <stop offset=".1" stop-color="#c1c5c4" stop-opacity=".4"/>
      <stop offset=".3" stop-color="#9ba1a2" stop-opacity=".4"/>
      <stop offset=".5" stop-color="#7d8487" stop-opacity=".4"/>
      <stop offset=".7" stop-color="#687074" stop-opacity="0"/>
      <stop offset=".8" stop-color="#5b6469" stop-opacity="0"/>
      <stop offset="1" stop-color="#576065" stop-opacity="0"/>
    </linearGradient>
    <linearGradient id="uuid-3a4aa4a7-0fa2-4a7d-a290-ad45820842b4" x1="-257.47" y1="-41.52" x2="-256.48" y2="-41.52" gradientTransform="translate(21238.83 55629.98) rotate(60) scale(228.08)" gradientUnits="userSpaceOnUse">
      <stop offset="0" stop-color="#e1e3e1" stop-opacity=".4"/>
      <stop offset=".1" stop-color="#c1c5c4" stop-opacity=".4"/>
      <stop offset=".3" stop-color="#9ba1a2" stop-opacity=".4"/>
      <stop offset=".5" stop-color="#7d8487" stop-opacity=".4"/>
      <stop offset=".7" stop-color="#687074" stop-opacity="0"/>
      <stop offset=".8" stop-color="#5b6469" stop-opacity="0"/>
      <stop offset="1" stop-color="#576065" stop-opacity="0"/>
    </linearGradient>
    <linearGradient id="uuid-c8ccdb1d-2ed8-47c0-b911-1252a68c9d94" x1="-253.03" y1="-66.82" x2="-252.04" y2="-66.82" gradientTransform="translate(-2367.12 2621.57) rotate(121.26) scale(13.54)" gradientUnits="userSpaceOnUse">
      <stop offset="0" stop-color="#27343c"/>
      <stop offset="1" stop-color="#00111e" stop-opacity="0"/>
    </linearGradient>
    <linearGradient id="uuid-c18d0b93-99f3-419d-8a1a-ad46af2f0935" x1="-274.95" y1="-37.16" x2="-273.96" y2="-37.16" gradientTransform="translate(-2326.53 -5422.29) rotate(-121.89) scale(21.9)" gradientUnits="userSpaceOnUse">
      <stop offset="0" stop-color="#02131f"/>
      <stop offset=".1" stop-color="#02131f"/>
      <stop offset=".9" stop-color="#02131f" stop-opacity="0"/>
      <stop offset="1" stop-color="#02131f" stop-opacity="0"/>
    </linearGradient>
    <linearGradient id="uuid-2be7f58a-3246-4171-ae5f-78c72fc6d6af" x1="-268.91" y1="-58.36" x2="-267.92" y2="-58.36" gradientTransform="translate(-4823.59 470.87) rotate(164.05) scale(18.05)" gradientUnits="userSpaceOnUse">
      <stop offset="0" stop-color="#02131f" stop-opacity=".8"/>
      <stop offset=".2" stop-color="#02131f" stop-opacity=".8"/>
      <stop offset=".9" stop-color="#02131f" stop-opacity="0"/>
      <stop offset="1" stop-color="#02131f" stop-opacity="0"/>
    </linearGradient>
    <linearGradient id="uuid-90ee47d2-4f9a-4e0f-a99e-843ac620a922" x1="-308.22" y1="-18.84" x2="-307.23" y2="-18.84" gradientTransform="translate(-561.92 -1785.34) rotate(-111.8) scale(6.68)" gradientUnits="userSpaceOnUse">
      <stop offset="0" stop-color="#02131f" stop-opacity=".8"/>
      <stop offset=".1" stop-color="#02131f" stop-opacity=".8"/>
      <stop offset="1" stop-color="#02131f" stop-opacity="0"/>
    </linearGradient>
    <linearGradient id="uuid-7047d4f8-c39c-4a22-9bda-bb3ccebb34aa" x1="-275.03" y1="-60.7" x2="-274.04" y2="-60.7" gradientTransform="translate(-3818.2 -327.14) rotate(173.29) scale(14.15)" gradientUnits="userSpaceOnUse">
      <stop offset="0" stop-color="#02131f"/>
      <stop offset=".3" stop-color="#02131f"/>
      <stop offset=".3" stop-color="#02131f"/>
      <stop offset=".8" stop-color="#02131f" stop-opacity="0"/>
      <stop offset="1" stop-color="#02131f" stop-opacity="0"/>
    </linearGradient>
    <linearGradient id="uuid-d0f67bd1-0d6f-4bbe-8e57-81c8062a06c2" x1="-282.31" y1="-70.84" x2="-281.32" y2="-70.84" gradientTransform="translate(-2622.16 -252.32) rotate(172.57) scale(9.58)" gradientUnits="userSpaceOnUse">
      <stop offset="0" stop-color="#27343c"/>
      <stop offset=".4" stop-color="#27343c"/>
      <stop offset="1" stop-color="#3b474e" stop-opacity="0"/>
    </linearGradient>
    <linearGradient id="uuid-72a5d1a7-613e-4274-84e1-ed5a1691c424" x1="-256.37" y1="-40.41" x2="-255.38" y2="-40.41" gradientTransform="translate(26868.83 21854.06) rotate(29.99) scale(133.11)" gradientUnits="userSpaceOnUse">
      <stop offset="0" stop-color="#24303a" stop-opacity="0"/>
      <stop offset="0" stop-color="#25323b" stop-opacity="0"/>
      <stop offset=".1" stop-color="#27343c"/>
      <stop offset="1" stop-color="#27343c"/>
    </linearGradient>
    <linearGradient id="uuid-749972f9-7ad4-4fd6-b997-5afbbe16df1b" x1="-271.65" y1="-28.22" x2="-270.66" y2="-28.22" gradientTransform="translate(691.57 -5232.26) rotate(-90) scale(19.83)" gradientUnits="userSpaceOnUse">
      <stop offset="0" stop-color="#a5abaf"/>
      <stop offset=".3" stop-color="#a5abaf"/>
      <stop offset="1" stop-color="#a5abaf" stop-opacity="0"/>
    </linearGradient>
    <linearGradient id="uuid-a3986784-644e-42a4-a898-d1902f61d2f2" x1="-257.99" y1="-42.1" x2="-257" y2="-42.1" gradientTransform="translate(-10414.93 65042.58) rotate(90) scale(252.07)" gradientUnits="userSpaceOnUse">
      <stop offset="0" stop-color="#dee0dd"/>
      <stop offset="0" stop-color="#c5c9c7"/>
      <stop offset="0" stop-color="#9ea4a5"/>
      <stop offset="0" stop-color="#82898c"/>
      <stop offset="0" stop-color="#71797d"/>
      <stop offset="0" stop-color="#6b7378"/>
      <stop offset=".2" stop-color="#333f47"/>
      <stop offset=".5" stop-color="#27343c"/>
      <stop offset=".8" stop-color="#333f47"/>
      <stop offset="1" stop-color="#434d54"/>
    </linearGradient>
    <linearGradient id="uuid-cb92a96e-d059-4098-bbd3-40ea17bbd9fd" x1="-258.36" y1="-44.64" x2="-257.37" y2="-44.64" gradientTransform="translate(-17832.25 18684.22) rotate(124.29) scale(99.03)" gradientUnits="userSpaceOnUse">
      <stop offset="0" stop-color="#27343c"/>
      <stop offset=".7" stop-color="#27343c"/>
      <stop offset=".7" stop-color="#2b373f"/>
      <stop offset=".7" stop-color="#36424a"/>
      <stop offset=".7" stop-color="#49545b"/>
      <stop offset=".8" stop-color="#646d73" stop-opacity="0"/>
      <stop offset=".8" stop-color="#868d92" stop-opacity="0"/>
      <stop offset=".8" stop-color="#b0b5b8" stop-opacity="0"/>
      <stop offset=".8" stop-color="#e1e3e4" stop-opacity="0"/>
      <stop offset=".8" stop-color="#fff" stop-opacity="0"/>
      <stop offset="1" stop-color="#fff" stop-opacity="0"/>
    </linearGradient>
  </defs>
  <g id="uuid-00b4c337-853d-4cff-b787-b5fc10e51aff" data-name="MAPF1 M n 4C">
    <g>
      <path id="uuid-ed96870b-8aab-443b-b5c6-0cb378c1bd29" data-name="outer" d="m261.57,132.23c0,71.49-57.85,129.34-129.34,129.34S2.89,203.72,2.89,132.23,60.74,2.89,132.23,2.89s129.34,57.85,129.34,129.34ZM132.23,10.74c-67.35,0-121.49,54.14-121.49,121.49s54.55,121.49,121.49,121.49,121.49-54.55,121.49-121.49S199.59,10.74,132.23,10.74Z" style="fill: url(#uuid-e8dd6871-946e-47d2-9944-621513d9e615);"/>
      <path d="m132.23,10.74c-67.35,0-121.49,54.14-121.49,121.49s54.55,121.49,121.49,121.49,121.49-54.55,121.49-121.49S199.59,10.74,132.23,10.74Zm0,235.12c-62.81,0-113.64-50.83-113.64-113.64S69.42,18.6,132.23,18.6s113.64,50.83,113.64,113.64-50.83,113.64-113.64,113.64v-.02Z" style="fill: url(#uuid-c8e533b0-b3f4-4a1c-9a14-5b16f4e45aee);"/>
      <path d="m132.23,261.57c71.49,0,129.34-57.85,129.34-129.34S203.72,2.89,132.23,2.89,2.89,60.74,2.89,132.23s57.85,129.34,129.34,129.34ZM132.23,0c72.73,0,132.23,59.5,132.23,132.23s-59.5,132.23-132.23,132.23S0,204.96,0,132.23,59.5,0,132.23,0Z" style="fill: url(#uuid-350a2ddd-88ab-4782-94a2-3ed1bef51500);"/>
      <path d="m9.09,132.64c0-67.76,54.96-123.55,123.14-123.55s123.14,55.37,123.14,123.55-54.96,122.73-123.14,122.73S9.09,200.41,9.09,132.64ZM47.52,47.52c-21.9,21.9-35.54,52.07-35.54,85.12s13.64,63.22,35.12,84.71c21.9,21.49,52.07,35.12,85.12,35.12s63.22-13.22,84.71-35.12c21.9-21.49,35.12-51.65,35.12-84.71s-13.64-63.22-35.12-85.12c-21.49-21.9-51.65-35.54-84.71-35.54s-63.22,13.64-84.71,35.54h0Z" style="fill: #fff;"/>
      <path d="m132.23,246.28c-30.58,0-59.09-11.98-80.58-33.47-21.49-21.49-33.47-50-33.47-80.58s11.98-59.09,33.47-80.58c21.49-21.49,50-33.47,80.58-33.47s59.09,11.98,80.58,33.47c21.49,21.49,33.47,50,33.47,80.58s-11.98,59.09-33.47,80.58-50,33.47-80.58,33.47Zm0-3.31c29.34,0,57.44-11.57,78.1-32.23,21.07-21.07,32.23-48.76,32.23-78.1s-11.57-57.44-32.23-78.1c-21.07-21.07-48.76-32.23-78.1-32.23s-57.44,11.57-78.1,32.23c-21.07,20.25-32.64,48.35-32.64,77.69s11.57,57.44,32.23,78.1c21.07,21.07,49.17,32.64,78.51,32.64h0Z" style="fill: url(#uuid-3a4aa4a7-0fa2-4a7d-a290-ad45820842b4);"/>
      <path d="m232.64,185.95c-2.07-1.65-81.82-64.88-81.82-64.88l-18.59-106.19c-1.24.41-2.89,1.65-3.72,3.31l-13.22,103.31-82.23,63.22s-1.65,2.07-2.48,3.31c-.41.83-.41,2.07-.41,3.31l101.65-41.74,101.65,41.74c.83-2.07,0-4.13-.83-5.37v-.02Z" style="fill: #fff;"/>
      <path d="m133.06,135.54l-.83,19.01,93.39,37.6c3.31,1.65,5.79.83,8.26-.83l-99.59-56.2c-.41-.41-1.24,0-1.24.41h.01Z" style="fill: #565f64;"/>
      <path d="m133.06,135.54s5.37,9.5,11.57,16.12c8.68,9.5,20.25,16.12,20.25,16.12l60.74,24.38c3.31,1.65,5.79.83,8.26-.83l-99.59-56.2c-.41-.41-1.24,0-1.24.41h0Z" style="fill: url(#uuid-c8ccdb1d-2ed8-47c0-b911-1252a68c9d94);"/>
      <path d="m233.47,187.6c0-.41-.41-.83-.83-1.65l-85.12-62.4-11.57,7.44s.83.41,1.24,0c1.24-.41,3.72-.83,6.2,0,2.07.83,90.08,57.02,90.08,57.02v-.41h0Z"/>
      <path d="m230.58,183.88l-79.34-62.81-3.72,2.48,85.12,62.81c-.41-.83-1.24-1.65-2.07-2.48h0Z" style="fill: #333e46;"/>
      <path d="m134.3,129.34l-.41.41s0,.83.83.41c.41-.41,12.4-6.61,16.53-9.09l-14.46-99.17c-.41-3.72-2.07-5.37-4.96-6.61l1.65,114.88.83-.83h0Z" style="fill: #565f64;"/>
      <path d="m127.27,21.9v5.37l-9.09,91.32c0,1.24.41,2.48,1.65,3.31l5.37,4.13,3.72-100.83.41-7.85c-1.24.83-1.65,2.48-2.07,4.55h0Z"/>
      <path d="m122.31,127.69l-4.96-4.13-83.88,60.74s-2.48,1.65-2.89,3.31l2.89-1.65,88.02-55.37c1.65-.83,2.07-1.65.83-2.89h-.01Z"/>
      <path d="m130.99,135.54c0-.41-.41-.83-.83-.41l-99.99,56.61c2.48,1.65,4.96,2.07,8.26.83l93.39-37.6-.83-19.42h0Z" style="fill: #565f64;"/>
      <path d="m133.88,129.75l.41-.41-.41.41s0,.41.41.41h.41c.41-.41,12.4-6.61,16.53-9.09l-1.65-11.98-12.81-87.19c0-1.65-.41-2.89-1.24-3.72,0,0,6.2,83.47,6.2,92.56,0,11.98-7.85,19.01-7.85,19.01Z" style="fill: url(#uuid-c18d0b93-99f3-419d-8a1a-ad46af2f0935);"/>
      <path d="m130.99,135.54c0-.41-.41-.83-.83-.41l-99.99,56.61c2.48,1.65,4.96,2.07,8.26.83l93.39-37.6-.83-19.42h0Z" style="fill: url(#uuid-2be7f58a-3246-4171-ae5f-78c72fc6d6af);"/>
      <path d="m38.43,192.15l93.39-37.6-.83-18.18c-1.65,4.96-4.55,10.33-12.4,14.46-5.79,3.31-61.16,30.58-80.99,40.08-1.24.83-2.89,1.24-3.72,1.65,1.65.83,2.89.41,4.55-.41Z" style="fill: url(#uuid-90ee47d2-4f9a-4e0f-a99e-843ac620a922);"/>
      <path d="m134.3,129.34l-.41.41s0,.83.83.41c.41-.41,12.4-6.61,16.53-9.09l-14.46-99.17c-.41-3.72-2.07-5.37-4.96-6.61l1.65,114.88.83-.83h0Z" style="fill: url(#uuid-7047d4f8-c39c-4a22-9bda-bb3ccebb34aa);"/>
      <path d="m134.3,129.34l-.41.41s0,.83.83.41c.41-.41,12.4-6.61,16.53-9.09l-14.46-99.17c-.41-3.72-2.07-5.37-4.96-6.61l1.65,114.88.83-.83h0Z" style="fill: url(#uuid-d0f67bd1-0d6f-4bbe-8e57-81c8062a06c2);"/>
      <path d="m21.07,183.47c-2.89-6.61-19.42-38.84-1.24-100.83h-7.02c-3.72,12.4-6.61,19.83-8.26,30.99,0,0-.83,4.13-1.24,8.68s-.41,7.02-.41,9.92c0,24.79,6.2,39.26,6.2,39.26,6.61,20.66,18.18,39.26,33.88,53.31,13.64,11.98,34.71,21.07,52.07,24.38-2.89-.41-52.48-21.49-73.97-65.7h-.01Z" style="fill: url(#uuid-72a5d1a7-613e-4274-84e1-ed5a1691c424);"/>
      <path d="m133.88,134.71h-3.72c.41,0,.83,0,.83.41l.83,19.01h.41l.83-19.01c0-.41.41-.83.83-.41h-.01Z" style="fill: url(#uuid-749972f9-7ad4-4fd6-b997-5afbbe16df1b);"/>
      <path d="m173.55,9.5c43.39,16.53,84.3,61.98,84.3,119.42,0,69.42-55.37,126.03-125.62,126.03v6.61c70.25,0,129.34-57.85,129.34-129.34,0-57.02-36.36-104.96-88.02-122.73h0Z" style="fill: url(#uuid-a3986784-644e-42a4-a898-d1902f61d2f2);"/>
      <path d="m242.97,83.47C214.05,16.94,148.76,13.22,145.04,12.81h-.41c50,9.09,81.82,41.74,92.98,76.03v.41c4.96,13.22,7.44,27.27,7.85,42.56.41,14.46-2.89,30.58-9.09,45.45-.41,2.07-.83,4.55-1.24,4.55h6.61c19.83-37.19,11.16-74.79,1.24-98.35h0Z" style="fill: url(#uuid-cb92a96e-d059-4098-bbd3-40ea17bbd9fd);"/>
      <path d="m9.09,132.64c0-67.76,54.96-123.55,123.14-123.55s123.14,55.37,123.14,123.55-54.96,122.73-123.14,122.73S9.09,200.41,9.09,132.64ZM47.52,47.52c-21.9,21.9-35.54,52.07-35.54,85.12s13.64,63.22,35.12,84.71c21.9,21.49,52.07,35.12,85.12,35.12s63.22-13.22,84.71-35.12c21.9-21.49,35.12-51.65,35.12-84.71s-13.64-63.22-35.12-85.12c-21.49-21.9-51.65-35.54-84.71-35.54s-63.22,13.64-84.71,35.54h0Z" style="fill: #fbfbfb;"/>
      <path d="m32.64,185.12l84.3-60.74c4.55,2.48,11.98,5.79,12.81,5.79.83.41.83-.41.83-.41l-10.33-8.68c-1.24-.83-1.65-2.07-1.65-3.31l9.92-99.59c-.41.41-.41,1.24-.83,1.65-.41.83-.41,1.24-.41,2.07l-14.46,99.59-79.34,62.4c-.41.41-.83.83-.83,1.24h-.01Z" style="fill: #333f47;"/>
    </g>
    <g id="uuid-2ad31101-d7b1-48a3-bdd2-9436959c7871" data-name="g1440">
      <g id="uuid-e285fd9f-f6f4-47dc-afbc-a0d864e8f435" data-name="g1396">
        <path id="uuid-de4f0f26-edf9-43d2-84e4-a08be91a7b9e" data-name="path1374" d="m759.28,95.61h84.68c1.38,0,2.52-1.14,2.52-2.52v-21.14c0-1.38-1.14-2.52-2.52-2.52h-41.62c-1.38,0-2.52,1.14-2.52,2.52v3.82c0,1.38,1.14,2.52,2.52,2.52h27.34c.45,0,.83.38.83.83v4.09c0,.45-.38.83-.83.83h-54.42c-1.38,0-2.52-1.14-2.52-2.52v-15.68c0-1.38,1.14-2.52,2.52-2.52h68.72c1.38,0,2.52-1.14,2.52-2.52v-5.75c0-1.38-1.14-2.52-2.52-2.52h-84.68c-1.38,0-2.52,1.14-2.52,2.52v38.01c-.02,1.4,1.12,2.54,2.49,2.54h0Zm-23.71,0h10.93c1.38,0,2.52-1.14,2.52-2.52v-38c0-1.38-1.14-2.52-2.52-2.52h-12.28c-.5,0-.95.12-1.38.4l-29.95,19.55c-.86.55-1.9.55-2.76,0l-29.95-19.55c-.43-.29-.86-.4-1.38-.4h-12.28c-1.38,0-2.52,1.14-2.52,2.52v38.01c0,1.38,1.14,2.52,2.52,2.52h10.93c1.38,0,2.52-1.14,2.52-2.52v-22.9c0-.43.21-.81.59-1.02s.83-.19,1.19.02l23.18,14.54c.43.26.83.38,1.33.38h10.4c.5,0,.93-.12,1.33-.38l23.18-14.54c.38-.24.81-.24,1.19-.02.38.21.62.59.62,1.02v22.9c.07,1.38,1.21,2.52,2.59,2.52h0Zm-91.81,0h-10.93c-1.38,0-2.52-1.14-2.52-2.52v-6.7c0-.45-.38-.83-.83-.83h-57.46c-.81,0-1.5.33-2,.97l-6.01,7.77c-.67.86-1.59,1.31-2.66,1.31h-15.01c-.45,0-.86-.24-1.05-.67-.21-.4-.17-.88.12-1.24l31.05-40.17c.5-.64,1.19-.97,2-.97h65.3c1.38,0,2.52,1.14,2.52,2.52v38.01c0,1.38-1.12,2.52-2.52,2.52h0Zm-13.44-21.97v-9.43c0-.45-.38-.83-.83-.83h-40.71c-.55,0-1,.24-1.33.64l-7.24,9.38c-.17.21-.19.48-.07.71.12.24.33.38.59.38h48.77c.45-.02.83-.4.83-.86h-.01Zm-188.58,21.97h-36.03c-.45,0-.86-.24-1.05-.67-.21-.4-.17-.88.12-1.24l31.05-40.17c.5-.64,1.19-.97,2-.97h35.68c.52,0,.97.29,1.21.76.24.48.17,1-.14,1.43l-30.83,39.88c-.5.64-1.19.97-2,.97h0Zm26.2,0h-17.06c-.45,0-.86-.24-1.05-.67-.21-.4-.17-.88.12-1.24l31.05-40.17c.5-.64,1.19-.97,2-.97h16.72c.52,0,.97.29,1.21.76.24.48.17,1-.14,1.43l-30.83,39.88c-.52.64-1.21.97-2.02.97h0Zm23.49,0h-13.18c-.45,0-.86-.24-1.05-.67-.21-.4-.17-.88.12-1.24l31.05-40.17c.5-.64,1.19-.97,2-.97h12.83c.52,0,.97.29,1.21.76.24.48.19,1-.14,1.43l-30.83,39.88c-.5.64-1.19.97-2,.97h-.01Zm21.21,0h-9.19c-.45,0-.86-.24-1.05-.67-.21-.4-.17-.88.12-1.24l31.05-40.17c.5-.64,1.19-.97,2-.97h8.86c.52,0,.97.29,1.21.76.24.48.17,1-.14,1.43l-30.83,39.88c-.52.64-1.21.97-2.02.97h0Zm20.33,0h-6.77c-.45,0-.86-.24-1.05-.67-.21-.4-.17-.88.12-1.24l31.05-40.17c.5-.64,1.19-.97,2-.97h6.41c.52,0,.97.29,1.21.76.24.48.17,1-.14,1.43l-30.83,39.88c-.5.64-1.19.97-2,.97h0Z" style="fill: #fff; fill-rule: evenodd;"/>
        <g id="uuid-050b43f5-41b0-47ff-bcbb-37c5b07cdee9" data-name="g1394">
          <path id="uuid-a66903cf-ca7b-4212-97c8-220293f5c5ec" data-name="path1378" d="m376.03,119.37c-2.45-1.52-7.24-2.23-14.66-2.23h-32.23v43.35h6.86v-16.63h25.37c7.43,0,12.23-.71,14.66-2.21,2.49-1.52,3.75-4.35,3.75-8.36v-5.53c.02-4.01-1.24-6.84-3.75-8.39h0Zm-3.49,10.02v2.02c0,2.68-.59,4.44-1.73,5.2-1.24.83-3.85,1.26-7.79,1.26h-26.98v-14.94h26.98c3.94,0,6.58.43,7.79,1.26,1.14.78,1.73,2.54,1.73,5.2Z" style="fill: #00a19b;"/>
          <path id="uuid-1079651d-5e9b-436b-a938-c1c2693ea94e" data-name="polygon1380" d="m400.78,123.05h39.27v-5.91h-46.01v43.35h46.01v-5.91h-39.27v-13.61h37.63v-5.91h-37.63v-12h0Z" style="fill: #00a19b;"/>
          <path id="uuid-d7709a9f-fd63-49d7-9fae-6cad3214acdb" data-name="polygon1382" d="m449.98,123.05h22.54v37.44h6.86v-37.44h22.52v-5.91h-51.93v5.91h.01Z" style="fill: #00a19b;"/>
          <path id="uuid-d76fa5ee-80fe-4d69-be43-ca0b25ac0fcf" data-name="path1384" d="m562.48,119.34c-2.47-1.5-7.27-2.23-14.7-2.23h-33.09v43.35h6.86v-16.53h26.98c5.72,0,7.89.74,8.69,1.38,1.14.88,1.71,2.61,1.71,5.15v10h6.86v-11.05c0-2.59-.69-4.68-2.07-6.18-.86-.93-1.97-1.64-3.33-2.09,1.76-.57,3.06-1.31,3.94-2.21,1.28-1.33,1.92-3.4,1.92-6.15v-5.04c.02-4.04-1.26-6.86-3.8-8.41h.03Zm-3.35,10.05v2.02c0,2.61-.59,4.37-1.73,5.18-1.24.86-3.85,1.28-7.77,1.28h-28.05v-14.94h28.05c3.92,0,6.53.43,7.77,1.31,1.14.83,1.73,2.57,1.73,5.15h0Z" style="fill: #00a19b;"/>
          <path id="uuid-2d3cf8cd-d842-48d6-8f61-e7667c361ab4" data-name="path1386" d="m634.66,119.67c-1.52-1.12-3.52-1.9-5.99-2.38-2.4-.45-6.06-.69-10.86-.69h-15.2c-4.8,0-8.46.24-10.86.69-2.45.48-4.47,1.26-5.99,2.38-1.71,1.26-2.95,2.99-3.71,5.18-.74,2.14-1.09,5.01-1.09,8.58v11.5c0,3.25.38,5.94,1.12,7.96.76,2.07,2.02,3.75,3.75,5.04,1.54,1.12,3.54,1.92,5.94,2.38,2.35.45,6.03.67,10.9.67h15.13c4.92,0,8.6-.24,10.95-.67,2.4-.45,4.37-1.26,5.89-2.38,1.66-1.21,2.9-2.92,3.66-5.06.76-2.09,1.14-4.85,1.14-8.2v-11.73c0-3.33-.38-6.06-1.14-8.17-.76-2.16-2-3.87-3.66-5.08l.02-.02Zm-14.16,35.23h-20.57c-2.87,0-5.08-.24-6.63-.69-1.47-.43-2.61-1.16-3.42-2.16-.59-.71-1.02-1.59-1.26-2.57-.26-1.05-.38-2.83-.38-5.27v-11.07c0-2.45.12-4.23.38-5.27.24-1,.67-1.85,1.26-2.57.81-1,1.97-1.71,3.42-2.14,1.52-.45,3.75-.69,6.63-.69h20.57c2.87,0,5.08.24,6.6.69,1.45.43,2.61,1.16,3.42,2.14.55.69.95,1.52,1.19,2.45.26,1,.38,2.59.38,4.75v12.38c0,2.14-.12,3.73-.38,4.73-.24.95-.64,1.78-1.19,2.47-.81,1-1.97,1.71-3.42,2.16-1.52.43-3.73.67-6.6.67h0Z" style="fill: #00a19b;"/>
          <path id="uuid-225d50ab-ffa4-4fcb-960e-b5b1ba5c2688" data-name="polygon1388" d="m712.1,117.13h-6.84v36.56l-40.29-36.56h-9.74v43.35h6.89v-37.13l40.88,37.13h9.1v-43.35h0Z" style="fill: #00a19b;"/>
          <path id="uuid-83a9049b-2dd7-4d01-a002-59d6fbd3fd18" data-name="path1390" d="m749.94,117.13l-27.17,43.35h7.89l5.8-9.29h35.51l5.96,9.29h7.44l-27.25-43.35h-8.18Zm-9.95,28.41l14.11-22.47,14.35,22.47h-28.46,0Z" style="fill: #00a19b;"/>
          <path id="uuid-7aa2c7a6-526a-44be-a23c-569cccd75d12" data-name="path1392" d="m846.43,140.89c-.71-1.64-1.92-2.95-3.61-3.85-1.14-.64-2.66-1.09-4.54-1.38-1.83-.26-4.56-.4-8.15-.4h-16.34c-4.92,0-8.15-.48-9.64-1.43-1.43-.9-2.11-2.57-2.11-5.08s.71-4.11,2.16-4.99c1.54-.93,4.66-1.4,9.24-1.4h15.51c4.49,0,7.46.45,8.79,1.35,1.26.86,1.88,2.57,1.88,5.11v1.26h6.65v-1.83c0-2.11-.26-3.9-.78-5.3-.52-1.45-1.38-2.64-2.52-3.54-1.35-1.05-3.23-1.78-5.58-2.19-2.28-.4-6.32-.59-11.97-.59h-10.33c-7.65,0-12.78.88-15.7,2.71-2.97,1.85-4.49,5.11-4.49,9.64s1.33,7.63,3.94,9.48c2.59,1.83,6.89,2.73,13.14,2.73h19.22c3.9,0,6.48.45,7.67,1.35,1.14.86,1.71,2.54,1.71,4.99,0,2.99-.83,4.94-2.52,5.96-1.78,1.07-5.72,1.62-11.76,1.62h-11.88c-5.01,0-8.43-.5-10.21-1.47-1.69-.93-2.49-2.57-2.49-4.99,0-.29.02-.83.07-1.64l.12-1.47h-6.63l-.09.5c-.02.14-.05.33-.05.57-.07,1.28-.1,2.19-.1,2.71,0,4.16,1.4,7.2,4.18,9,2.73,1.78,7.1,2.66,13.4,2.66h15.44c7.27,0,12.21-.95,15.06-2.87,2.87-1.97,4.35-5.42,4.35-10.29.02-2.99-.33-5.32-1.02-6.94h-.02Z" style="fill: #00a19b;"/>
        </g>
      </g>
      <g id="uuid-ad294894-4cfb-4eab-8629-0233ac85001f" data-name="g1430">
        <path id="uuid-350eda8e-089a-4ea6-8fdd-fff5dedc3df7" data-name="path1402" d="m418.86,196.38v2.35h-12.85v15.13h-2.68v-31.52h16.49v2.35h-13.8v11.66h12.85v.02h-.01Z" style="fill: #fff;"/>
        <path id="uuid-e663c04a-fa8e-4e6e-a312-35f387c7b558" data-name="path1404" d="m452.11,198.06c0,9.6-5.11,16.3-12.33,16.3s-12.42-6.67-12.42-16.49,5.2-16.06,12.38-16.06,12.38,6.72,12.38,16.25h-.01Zm-21.85-.14c0,8.27,3.87,14.04,9.45,14.04s9.45-5.77,9.45-13.9-3.92-13.85-9.45-13.85-9.45,5.77-9.45,13.71Z" style="fill: #fff;"/>
        <path id="uuid-b930be0b-2d69-4c18-b1a8-772a3ddf812b" data-name="path1406" d="m466.79,182.34c4.87,0,6.29.14,8.36.86,3.25,1.05,5.3,4.01,5.3,7.79,0,4.16-2.26,6.98-6.79,8.5l8.65,14.37h-3.3l-8.46-13.99h-5.87v13.99h-2.68v-31.52h4.8,0Zm.1,15.16c4.16,0,5.2-.1,6.79-.67,2.45-.86,3.82-2.97,3.82-5.91,0-2.68-1.24-4.68-3.3-5.53-1.52-.57-2.78-.71-7.27-.71h-2.26v12.8h2.21v.02h0Z" style="fill: #fff;"/>
        <path id="uuid-0e61f0d1-d402-4b24-83f8-bbf755f82276" data-name="path1408" d="m495.47,182.34l9.5,28.5,9.5-28.5h4.35v31.52h-2.68v-29.05l-9.79,29.05h-2.68l-9.83-29.05v29.05h-2.68v-31.52h4.32,0Z" style="fill: #fff;"/>
        <path id="uuid-1dfff700-0bce-4a33-ad42-f716ceca8819" data-name="path1410" d="m532.4,182.34v18.72c.05,5.68.14,6.53,1.19,7.98,1.24,1.85,3.78,2.92,6.79,2.92,3.4,0,6.1-1.33,7.22-3.54.71-1.38.76-2.16.81-7.36v-18.72h2.68v18.77c0,5.15-.05,5.77-.62,7.36-1.33,3.73-5.06,5.91-10.12,5.91-4.54,0-7.98-1.76-9.6-4.82-.81-1.57-1.09-3.11-1.09-6.15v-21.07h2.74Z" style="fill: #fff;"/>
        <path id="uuid-8b201932-093a-463a-af4a-c00d110a74f0" data-name="path1412" d="m564.76,182.34v29.15h13.42v2.35h-16.2v-31.52h2.78v.02Z" style="fill: #fff;"/>
        <path id="uuid-91fb6f6b-63c8-45d2-a635-05dee2c4b292" data-name="path1414" d="m598.2,182.1l10.93,31.76h-2.83l-3.06-8.93h-12.09l-3.11,8.93h-2.78l10.93-31.76h2.02,0Zm-1.05,3.82l-5.3,16.63h10.55l-5.25-16.63Z" style="fill: #fff;"/>
        <path id="uuid-f914d32d-b4d4-4697-897f-bbe3a5bc92b3" data-name="path1416" d="m655.64,198.06c0,9.6-5.11,16.3-12.33,16.3s-12.42-6.67-12.42-16.49,5.2-16.06,12.38-16.06,12.38,6.72,12.38,16.25h-.01Zm-21.83-.14c0,8.27,3.87,14.04,9.45,14.04s9.45-5.77,9.45-13.9-3.92-13.85-9.45-13.85-9.45,5.77-9.45,13.71Z" style="fill: #fff;"/>
        <path id="uuid-a9232b7c-eb48-40c7-87d2-32eb34bcdaea" data-name="path1418" d="m668.47,182.34l15.87,27.6v-27.6h2.49v31.52h-3.11l-15.68-27.51v27.51h-2.54v-31.52h2.97Z" style="fill: #fff;"/>
        <path id="uuid-68d84af3-a8a3-4915-91f3-31d07ee43a40" data-name="path1420" d="m713.72,196.38v2.35h-12.85v12.76h13.99v2.35h-16.68v-31.52h16.49v2.35h-13.8v11.66h12.85v.05h0Z" style="fill: #fff;"/>
        <path id="uuid-fd344fcf-d84f-452a-a72f-2d7f892a2320" data-name="path1422" d="m755.24,182.34v2.35h-8.12v29.15h-2.68v-29.15h-8.17v-2.35h18.98-.01Z" style="fill: #fff;"/>
        <path id="uuid-49148c47-26ae-4df7-95e5-c23cad765167" data-name="path1424" d="m779.14,196.38v2.35h-12.85v12.76h13.99v2.35h-16.68v-31.52h16.49v2.35h-13.8v11.66h12.85v.05h0Z" style="fill: #fff;"/>
        <path id="uuid-6dc6a3ff-62c3-43d7-83b7-b3475fcecda9" data-name="path1426" d="m799.78,182.1l10.93,31.76h-2.83l-3.06-8.93h-12.09l-3.11,8.93h-2.78l10.93-31.76h2.02,0Zm-1.05,3.82l-5.3,16.63h10.55l-5.25-16.63Z" style="fill: #fff;"/>
        <path id="uuid-3eca9df4-fb08-4a95-8c6a-adffeaaf7132" data-name="path1428" d="m823.39,182.34l9.5,28.5,9.5-28.5h4.35v31.52h-2.68v-29.05l-9.79,29.05h-2.68l-9.83-29.05v29.05h-2.68v-31.52h4.32-.01Z" style="fill: #fff;"/>
      </g>
    </g>
  </g>
</svg>