<?xml version="1.0" encoding="UTF-8"?>
<svg id="uuid-23f2bafb-69e8-438d-8cb1-37751925c63d" data-name="Layer 2" xmlns="http://www.w3.org/2000/svg" width="380.02" height="114.82" viewBox="0 0 380.02 114.82">
  <g id="uuid-6096e5a9-9c1b-4cb2-bff9-cc53e21eaee7" data-name="Layer 1-2">
    <g id="uuid-1d3c1c6f-3676-43b6-91f5-a07deefe78b4" data-name="g22845">
      <g id="uuid-2ef44656-c5d9-4a3a-b407-ea7d2646f5ce" data-name="g23593">
        <path id="uuid-d96b753e-b11a-4891-ab41-58adc53a1d28" data-name="path23441" d="m132.1,111.12c0,1.34.5,1.68,1.34,1.68s1.34-.34,1.34-1.68v-.84h2.01v.5c0,3.02-1.34,4.03-3.36,4.03s-3.36-1.01-3.36-4.03v-4.2c0-3.02,1.34-4.03,3.36-4.03s3.36,1.01,3.36,4.03h-2.01v-.34c0-1.34-.5-1.68-1.34-1.68s-1.34.34-1.34,1.68v4.87" style="fill: #155195;"/>
        <path id="uuid-4ba8f717-796f-42ee-91b1-41868d195771" data-name="path23443" d="m138.64,114.64v-11.92h5.71v2.01h-3.52v2.69h2.69v2.01h-2.69v3.19h3.69v2.01h-5.87" style="fill: #155195;"/>
        <path id="uuid-4486e01c-c4a5-4396-8256-5a5fb0280391" data-name="path23445" d="m146.53,114.64v-11.92h2.18l2.85,7.05h0v-7.05h1.85v11.92h-2.01l-3.19-7.72h0v7.72h-1.68" style="fill: #155195;"/>
        <path id="uuid-b63ae96d-5357-438f-96b3-57d66abe6b68" data-name="path23447" d="m161.97,102.72v2.01h-2.35v9.9h-2.01v-9.9h-2.35v-2.01h6.71" style="fill: #155195;"/>
        <path id="uuid-34d6e56a-efae-4c30-8e42-98f6fcd712aa" data-name="path23449" d="m165.5,107.93h1.01c.84,0,1.51-.5,1.51-1.68s-.5-1.68-1.51-1.68h-1.01v3.36Zm2.69,6.71l-1.85-4.87h-1.01v4.87h-2.01v-11.92h3.02c2.52,0,3.69,1.34,3.69,3.52,0,1.51-.5,2.52-1.68,3.02l2.01,5.37h-2.18" style="fill: #155195;"/>
        <path id="uuid-57af3643-43e2-4010-acec-b7bff4ff0835" data-name="path23451" d="m171.88,114.64v-11.92h5.71v2.01h-3.52v2.69h2.69v2.01h-2.69v3.19h3.69v2.01h-5.87" style="fill: #155195;"/>
        <path id="uuid-816a7d7a-e3f0-4a02-a0f8-c54bbca84c9d" data-name="path23453" d="m184.13,114.64v-11.92h2.18l2.85,7.05h0v-7.05h1.85v11.92h-2.01l-3.19-7.72h0v7.72h-1.68" style="fill: #155195;"/>
        <path id="uuid-b1e945ea-8e7a-42d9-94da-2bf10f11bf54" data-name="path23455" d="m195.71,110.11h2.01l-1.01-4.87h0l-1.01,4.87h0Zm-3.02,4.53l2.69-11.92h2.69l2.52,11.92h-2.01l-.34-2.52h-2.85l-.5,2.52h-2.18" style="fill: #155195;"/>
        <path id="uuid-2f25f152-420a-4d7d-800d-cbe3f0f24471" data-name="path23457" d="m207.46,102.72v2.01h-2.52v9.9h-2.01v-9.9h-2.35v-2.01h6.88" style="fill: #155195;"/>
        <path id="uuid-e42fb3d0-4fd3-46d3-82fa-f9e4c4ae8ba1" data-name="path23459" d="m208.8,114.64h2.01v-11.92h-2.01v11.92Z" style="fill: #155195;"/>
        <path id="uuid-325cabd3-26ca-48f2-abf7-6311f60e1f86" data-name="path23461" d="m215.02,111.12c0,1.34.5,1.68,1.34,1.68s1.34-.34,1.34-1.68v-4.87c0-1.34-.5-1.68-1.34-1.68s-1.34.34-1.34,1.68v4.87Zm-2.01-4.53c0-3.02,1.34-4.03,3.36-4.03s3.36,1.01,3.36,4.03v4.2c0,3.02-1.34,4.03-3.36,4.03s-3.36-1.01-3.36-4.03v-4.2" style="fill: #155195;"/>
        <path id="uuid-bf2fc614-7b03-4a7a-9877-be88afc7e25a" data-name="path23463" d="m221.56,114.64v-11.92h2.18l2.85,7.05h0v-7.05h1.85v11.92h-2.01l-3.19-7.72h0v7.72h-1.68" style="fill: #155195;"/>
        <path id="uuid-cb7e7adf-eb82-43d6-9780-4e401696f20f" data-name="path23465" d="m232.98,110.11h2.01l-1.01-4.87h0l-1.01,4.87h0Zm-2.85,4.53l2.69-11.92h2.69l2.52,11.92h-2.01l-.5-2.52h-2.85l-.5,2.52h-2.01" style="fill: #155195;"/>
        <path id="uuid-108f5f81-3b78-4ccc-ab56-d21234634cfc" data-name="path23467" d="m239.35,114.64v-11.92h2.01v9.9h3.36v2.01h-5.37" style="fill: #155195;"/>
        <path id="uuid-052194e8-3a83-4308-9abb-f1cf3d2f7ce9" data-name="path23469" d="m252.78,112.63h.67c1.17,0,1.85-.67,1.85-2.35v-3.19c0-1.68-.5-2.35-1.85-2.35h-.67v7.89h0Zm-2.01-9.9h2.85c2.35,0,3.69,1.17,3.69,4.2v3.69c-.17,3.02-1.34,4.2-3.69,4.2h-2.85v-12.09" style="fill: #155195;"/>
        <path id="uuid-b041d5fb-6d83-4c0a-b162-eecab9f1ca74" data-name="path23471" d="m259.83,105.07h-.84v-2.35h2.18v2.35l-1.01,2.52h-1.01l.67-2.52" style="fill: #155195;"/>
        <path id="uuid-3cdd295d-828b-49d0-8c0a-3041448e6aeb" data-name="path23473" d="m268.06,99.7l-2.18,2.35h-1.51l1.34-2.35h2.35Zm-5.2,14.94v-11.92h5.71v2.01h-3.52v2.69h2.69v2.01h-2.69v3.19h3.69v2.01h-5.87" style="fill: #155195;"/>
        <path id="uuid-98084a12-bb01-4dd7-8542-176c090a56dd" data-name="path23475" d="m276.95,102.72v2.01h-2.35v9.9h-2.01v-9.9h-2.35v-2.01h6.71" style="fill: #155195;"/>
        <path id="uuid-50b35c2a-efcc-4d12-a8dd-bf8d96b4694c" data-name="path23477" d="m280.31,102.72v8.39c0,1.17.5,1.68,1.51,1.68s1.51-.67,1.51-1.68v-8.39h2.01v8.39c0,2.69-1.34,3.69-3.52,3.69s-3.52-1.17-3.52-3.69v-8.39h2.01" style="fill: #155195;"/>
        <path id="uuid-5b21c65e-bd83-4a48-a50f-5a6a9bc58bed" data-name="path23479" d="m289.37,112.63h.67c1.17,0,1.85-.67,1.85-2.35v-3.19c0-1.68-.5-2.35-1.85-2.35h-.67v7.89h0Zm-2.01-9.9h2.85c2.35,0,3.69,1.17,3.69,4.2v3.69c-.17,3.02-1.34,4.2-3.69,4.2h-2.85v-12.09" style="fill: #155195;"/>
        <path id="uuid-0a8b1b9f-a87f-4da9-a042-ea7b1694626b" data-name="path23481" d="m295.42,114.64v-11.92h5.71v2.01h-3.52v2.69h2.69v2.01h-2.69v3.19h3.69v2.01h-5.87" style="fill: #155195;"/>
        <path id="uuid-ce80e9b7-34ef-4487-8769-b03f11769ac8" data-name="path23483" d="m307.33,106.08c-.34-1.17-.84-1.68-1.51-1.68s-1.17.5-1.17,1.34c0,1.85,4.53,2.01,4.53,5.71,0,2.01-1.34,3.36-3.36,3.36-1.68,0-3.02-1.01-3.52-3.36l2.01-.5c.17,1.51,1.01,2.01,1.68,2.01s1.34-.5,1.34-1.34c0-2.18-4.53-2.35-4.53-5.71,0-2.01,1.17-3.36,3.19-3.36,1.85,0,3.02,1.17,3.36,2.85l-2.01.67" style="fill: #155195;"/>
        <path id="uuid-07d64008-9e8a-4edf-8a96-c2abb56dca70" data-name="path23485" d="m320.26,106.08c-.34-1.17-.84-1.68-1.51-1.68s-1.17.5-1.17,1.34c0,1.85,4.53,2.01,4.53,5.71,0,2.01-1.34,3.36-3.36,3.36-1.68,0-3.02-1.01-3.52-3.36l2.01-.5c.17,1.51,1.01,2.01,1.68,2.01s1.34-.5,1.34-1.34c0-2.18-4.53-2.35-4.53-5.71,0-2.01,1.17-3.36,3.19-3.36,1.85,0,3.02,1.17,3.36,2.85l-2.01.67" style="fill: #155195;"/>
        <path id="uuid-bd5acc3f-2e96-4427-984a-9fcbe125b0f6" data-name="path23487" d="m325.96,108.1h1.17c1.01,0,1.51-.5,1.51-1.68s-.5-1.68-1.51-1.68h-1.17v3.36Zm-2.01,6.55v-11.92h3.02c2.52,0,3.69,1.34,3.69,3.52s-1.17,3.52-3.69,3.52h-.84v4.87h-2.18" style="fill: #155195;"/>
        <path id="uuid-91681281-3663-4f75-9d4b-e4da3fbeada2" data-name="path23489" d="m333.52,110.11h2.01l-1.01-4.87h0l-1.01,4.87h.01Zm-3.02,4.53l2.69-11.92h2.69l2.52,11.92h-2.01l-.5-2.52h-2.85l-.5,2.52h-2.01" style="fill: #155195;"/>
        <path id="uuid-86a33e7b-710f-4e98-9c6f-b5dc1c78099e" data-name="path23491" d="m345.27,102.72v2.01h-2.35v9.9h-2.01v-9.9h-2.35v-2.01h6.71" style="fill: #155195;"/>
        <path id="uuid-11261b6d-66a2-47db-b437-be8528c0646d" data-name="path23493" d="m346.78,114.64h2.01v-11.92h-2.01v11.92Z" style="fill: #155195;"/>
        <path id="uuid-0b4ff466-5e0f-4f39-a933-f6e04e205bb6" data-name="path23495" d="m353.16,110.11h2.01l-1.01-4.87h0l-1.01,4.87h.01Zm-2.85,4.53l2.69-11.92h2.69l2.52,11.92h-2.01l-.5-2.52h-2.85l-.5,2.52h-2.01" style="fill: #155195;"/>
        <path id="uuid-5c355bdb-4b53-4c81-acd8-c8fb2c55296e" data-name="path23497" d="m359.37,114.64v-11.92h2.01v9.9h3.36v2.01h-5.37" style="fill: #155195;"/>
        <path id="uuid-601a51eb-cae9-4cc1-8b92-8cefe3456023" data-name="path23499" d="m366.08,114.64v-11.92h5.71v2.01h-3.52v2.69h2.69v2.01h-2.69v3.19h3.69v2.01h-5.87" style="fill: #155195;"/>
        <path id="uuid-2a37b8bd-a5c4-473e-b691-8534148c429d" data-name="path23501" d="m378,106.08c-.34-1.17-.84-1.68-1.51-1.68s-1.17.5-1.17,1.34c0,1.85,4.53,2.01,4.53,5.71,0,2.01-1.34,3.36-3.36,3.36-1.68,0-3.02-1.01-3.52-3.36l2.01-.5c.17,1.51,1.01,2.01,1.68,2.01s1.34-.5,1.34-1.34c0-2.18-4.53-2.35-4.53-5.71,0-2.01,1.17-3.36,3.19-3.36,1.85,0,3.02,1.17,3.36,2.85l-2.01.67" style="fill: #155195;"/>
        <path id="uuid-2804ec29-5507-4c8e-9671-95ebf1003c09" data-name="path23503" d="m153.08,35.92c-11.41,0-23,4.7-23,21.65v23h10.24v-22.83c0-11.41,7.39-14.1,12.76-14.1s12.76,2.69,12.76,14.1v22.83h10.24v-23c0-16.95-11.58-21.65-23-21.65" style="fill: #155195;"/>
        <path id="uuid-011d8e22-3cb0-4c7a-9086-f4c054b69e90" data-name="path23505" d="m80.9,58.92c0,10.74,4.7,21.82,21.65,21.82h20.81v-7.55h-18.13c-11.41,0-13.76-8.9-13.76-14.1s2.18-14.27,13.76-14.27h18.13v-7.55h-20.81c-16.95-.17-21.65,10.74-21.65,21.65" style="fill: #155195;"/>
        <path id="uuid-45576e9b-6837-4c19-af88-6721026fed18" data-name="path23507" d="m193.03,62.44h35.58v-3.19c0-19.3-12.76-23.33-24.17-23.33-16.28,0-22.16,11.58-22.16,22.32v.67c0,10.74,4.7,21.82,21.65,21.82h23.5v-7.55h-20.81c-9.57-.17-12.76-5.71-13.6-10.74m24.67-6.55h-24.67c0-3.69.34-13.26,12.25-13.26,14.27,0,12.42,13.26,12.42,13.26" style="fill: #155195;"/>
        <path id="uuid-1db88e61-8110-4f03-94ce-fa2fc6b69ed3" data-name="path23509" d="m260.5,55.56h-5.71c-5.37,0-8.73-1.68-8.73-5.54s2.69-5.2,8.06-5.37h22.66v-7.55h-22.49c-9.06,0-19.47,1.51-19.47,12.76,0,12.25,13.76,12.09,17.79,12.09h5.71c5.37,0,8.73,1.68,8.73,5.54s-2.69,5.2-8.06,5.37h-22.66v7.55h22.49c9.06,0,19.47-1.51,19.47-12.76.17-12.42-13.6-12.09-17.79-12.09" style="fill: #155195;"/>
        <path id="uuid-d8de5a24-3298-4cd0-af92-891a4cc49aa6" data-name="path23511" d="m52.54,74.19c-10.57-.17-22.32-9.23-22.32-24.34V0h-3.52v26.52C11.41,29.88,0,42.47,0,57.57c0,17.62,15.44,31.89,34.58,31.89,14.44,0,26.86-8.22,31.89-20.14-3.19,3.02-8.9,5.04-13.93,4.87" style="fill: #155195;"/>
        <path id="uuid-701e3291-03a5-48af-a46b-7d8e9e729bf6" data-name="path23513" d="m34.74,25.68c1.51-.17,19.13,0,29.54,15.78,3.52,5.2.17,11.92-10.41,12.25-3.86,0-17.12-3.36-19.13-28.03" style="fill: #155195;"/>
      </g>
    </g>
  </g>
</svg>