<?xml version="1.0" encoding="UTF-8"?>
<svg id="uuid-c2e66242-3634-4cea-9331-65970f27b153" data-name="Layer 1" xmlns="http://www.w3.org/2000/svg" width="1189.4" height="393.81" viewBox="0 0 1189.4 393.81">
  <g id="uuid-1283876b-6a61-4d64-a3ab-ec8da17beafa" data-name="logga - desktop">
    <path d="m1168.83,81.6h-3.02v-21.17h7.87c4.84,0,7.87,1.81,7.87,6.65,0,3.02-1.82,4.84-4.84,6.65l6.65,9.68h-4.84l-4.84-9.68h-3.02v7.86h-1.81Zm0-12.7h3.02c3.02,0,4.84-1.81,4.84-3.02,0-1.81-1.82-3.02-4.84-3.02h-4.84v6.65h1.82v-.6Zm-14.52,1.81c0-9.68,7.87-17.54,17.54-17.54s17.54,7.86,17.54,17.54-7.87,17.54-17.54,17.54c-9.07.6-17.54-6.65-17.54-16.33v-1.21m34.48,0c0-7.86-6.65-14.52-14.52-14.52s-14.52,6.65-14.52,14.52,6.65,14.52,14.52,14.52h0c7.87,1.21,14.52-4.84,14.52-14.52m-581.39,215.98c-38.11-.6-68.36-31.46-67.76-69.57h0c-.6-38.72,29.04-70.78,67.76-72.6,37.51.6,67.76,31.46,67.76,69.57,1.21,38.72-29.04,71.39-67.76,72.6m-1.81-161.53c-50.21,0-90.14,40.53-90.14,90.14s40.53,90.14,90.14,90.14,90.14-40.53,90.14-90.14h0c.6-49-38.72-89.54-88.33-90.14h-1.82m-173.03,177.87h22.38v-101.64c0-12.7,4.23-25.41,11.49-35.69,9.68-10.28,22.99-16.33,36.9-17.54v-22.99c-19.36,1.81-38.72,4.84-48.4,29.04v-26.01h-22.38v174.84Zm-124.02-16.33c-38.11-.6-68.36-31.46-67.76-69.57h0c-.6-38.72,29.04-70.78,67.76-72.6,37.51.6,67.76,31.46,67.76,69.57,0,45.37-33.88,72.6-67.76,72.6m0-161.53c-50.21,0-90.14,40.53-90.14,90.14s40.53,90.14,90.14,90.14,90.14-40.53,90.14-90.14h0c.6-49.61-39.93-90.14-90.14-90.14h0m-214.77,161.53c-38.72.6-70.18-29.64-70.78-68.36v-3.02c-1.21-38.11,28.43-69.57,65.94-70.78h4.84c39.32.6,70.18,33.27,69.57,72.6-1.21,38.11-31.46,68.97-69.57,69.57m88.93-219.61h-21.17v90.14c-15.73-21.78-41.14-34.48-67.76-33.88C37.51,125.16,0,168.72,0,215.3c.6,50.21,41.14,90.75,91.35,90.75h1.81c26.62,0,52.03-12.7,67.76-33.88v30.85h22.38V67.08h-.6Zm613.45,52.03c29.04-11.49,67.76-17.54,87.12-21.17,5.45,0,10.28-3.02,12.7-7.86,19.96-33.27,58.08-52.63,96.8-48.4,35.09,3.02,66.55,21.78,87.12,50.21,3.63,4.84,9.07,7.86,14.52,9.68,11.49,2.42,22.99,5.45,33.88,9.68,6.65,1.81,9.68,1.81,7.87-3.02-49-96.8-166.98-136.12-263.77-87.12-38.11,19.36-68.97,50.21-87.72,88.93-3.03,9.08-1.21,13.91,11.49,9.08m353.31,99.82c-14.52-7.86-30.25-13.31-46.58-16.33-3.63-.6-7.86,1.21-9.68,4.84-19.96,36.3-59.29,56.87-99.82,53.24-36.3-3.02-69.57-21.78-90.75-51.42-4.23-6.65-12.1-9.68-19.36-7.86-22.38,3.02-67.76,11.49-98.61,26.01l-1.81,1.81c-9.68,4.84-12.7,9.68-9.68,24.2,30.25,103.45,138.54,162.74,241.99,132.49,70.78-20.57,124.02-79.25,137.33-151.85,1.82-10.28.61-13.31-3.02-15.12m-212.95-80.46c0-30.25,24.8-55.05,55.05-55.05,1.81,0,4.23,0,6.05.6,33.88,3.02,61.1,32.06,61.1,64.73,0,30.25-24.8,55.05-55.05,55.05-1.81,0-4.23,0-6.05-.6-33.88-2.42-60.5-30.85-61.1-64.73" style="fill: #008545;"/>
  </g>
</svg>