<?xml version="1.0" encoding="UTF-8"?>
<svg id="uuid-20c8e19d-8f33-4b1e-9357-0f5cf2a4831c" data-name="svg2" xmlns="http://www.w3.org/2000/svg" width="499.89" height="113.63" viewBox="0 0 499.89 113.63">
  <g id="uuid-7a85808e-ae0b-4aac-8d48-879f15e264fc" data-name="g12">
    <path id="uuid-0ba987d8-2518-4c59-94e3-eba552bfcbe7" data-name="path70" d="m485.62,3.38c-1.5,1.5-2.25,3.37-2.25,5.5s.75,4,2.25,5.5,3.25,2.25,5.5,2.25,4-.75,5.5-2.25,2.25-3.37,2.25-5.5-.75-4-2.25-5.5-3.38-2.25-5.5-2.25c-2.25,0-4,.75-5.5,2.25Zm11.75,11.88c-1.75,1.75-3.87,2.63-6.37,2.63s-4.63-.87-6.37-2.63c-1.75-1.75-2.62-3.88-2.62-6.38s.88-4.62,2.62-6.25c1.75-1.75,3.75-2.63,6.25-2.63s4.63.87,6.37,2.63c1.75,1.75,2.62,3.88,2.62,6.25.12,2.5-.75,4.63-2.5,6.38Zm-4.63-9.75c-.37-.25-1.13-.38-2.13-.38h-1.5v3.5h1.62c.75,0,1.25-.13,1.62-.25.62-.25,1-.75,1-1.5,0-.62-.25-1.13-.62-1.38h0Zm-1.88-1.5c1.25,0,2.13.13,2.62.38,1,.38,1.5,1.25,1.5,2.5,0,.87-.37,1.5-1,1.88-.37.25-.88.38-1.37.5.75.13,1.37.5,1.75,1,.37.5.5,1,.5,1.5v1.5c0,.25.12.38.12.5v.13h-1.62v-1.38c0-1.12-.25-1.88-.88-2.25-.37-.25-1-.38-1.88-.38h-1.37v3.88h-1.75V3.88l3.37.13" style="fill: #231f20;"/>
    <path id="uuid-a07f6111-c2f3-4318-b7e7-8df148228510" data-name="path74" d="m55,75.13v-15.13h-31.12V1.38H0v73.75h55" style="fill: #1d4492;"/>
    <path id="uuid-7f703204-fe55-4bc5-b9e1-39d879844701" data-name="path78" d="m123.37,75.13v-14.62h-34.25v-16.25h32.37v-13.88h-32.37v-14.62h34.25V1.38h-58v73.75h58" style="fill: #1d4492;"/>
    <path id="uuid-4c0e9511-63d1-4592-acb1-d61c34844784" data-name="path80" d="m136.12,75.13h23.88V1.38h-23.88v73.75Z" style="fill: #1d4492;"/>
    <path id="uuid-7d55ceca-1112-4bcc-9754-b866650e1459" data-name="path84" d="m243,16V1.5h-73.12v14.5h24.75v59.25h23.62V16h24.75" style="fill: #1d4492;"/>
    <path id="uuid-05d07352-0c9e-49c4-b12c-76d36f7e1c5f" data-name="path88" d="m401.88,75.13v-14.62h-34.25v-16.25h32.37v-13.88h-32.37v-14.62h34.25V1.38h-58v73.75h58" style="fill: #1d4492;"/>
    <path id="uuid-0b518afa-7f40-4788-a80e-445a786b319e" data-name="path92" d="m483.87,75.13l-19.88-23.75c-2.25-2.75-4.75-5.5-7.25-8.37,12.5-2.37,20.75-10.5,20.75-20.5,0-15.62-13.38-21.88-35.37-21.88-11.25,0-21.38.13-29.38.5v74h21.63v-29h.88l22.25,29h26.37Zm-29.12-51.25c0,6.25-5.88,10.13-15,10.13-2,0-4.25-.13-5.37-.25V14.75c1.25-.13,3.75-.25,6-.25,10.13.12,14.38,3.62,14.38,9.37" style="fill: #1d4492;"/>
    <path id="uuid-696fc7f6-3ea9-4b93-8a81-8b764b4aeb29" data-name="path96" d="m332,75.13V1.63h-20.62v24.25c0,7,.25,16.63,1,23-3.25-5.62-7.13-12-11.25-18.12l-20.37-29.13h-27.5v73.5h20.62v-28c0-7-.25-14.38-.62-19.87,2.5,4.75,5.62,10.5,9.63,16.12l21.88,31.75h27.25" style="fill: #1d4492;"/>
    <path id="uuid-71342a5f-d2f0-4051-b6ea-cec8b4d02a73" data-name="path100" d="m136.12,91.5h6.38v3c.5-.5,1.88-1.12,3.88-1.88s4.38-1.12,7-1.12h5.13v2.75h-5.25c-3.38,0-6,.38-7.75,1.25-1.88.87-2.75,1.88-2.75,2.88v9.38h-6.75l.12-16.25" style="fill: #231f20;"/>
    <path id="uuid-c7ed26b9-211c-4b47-aa8f-9bf5b2731104" data-name="path104" d="m191.25,103.63c1.62-1.38,2.5-2.75,2.5-4.38,0-1.5-.62-2.63-1.75-3.5-1.88-1.38-5-2.12-9.63-2.12-4,0-7,.62-8.88,1.88s-2.75,2.75-2.75,4.38.88,3,2.75,4.13c1.88,1.12,4.75,1.63,8.75,1.63,4.5,0,7.38-.62,9-2h0Zm4.12-10.25c3.5,1.38,5.25,3.25,5.25,5.87s-1.5,4.62-4.63,6.25c-3,1.63-7.87,2.5-14.38,2.5-5.37,0-9.63-.75-12.87-2.12-3.12-1.5-4.75-3.37-4.75-5.87,0-2.63,1.62-4.75,5-6.25s7.87-2.37,13.5-2.37c5.13,0,9.38.62,12.87,2" style="fill: #231f20;"/>
    <path id="uuid-46024de2-8f62-499a-8685-79e7a11dbd1d" data-name="path108" d="m238.12,104c2-1,3.12-2.5,3.12-4.62,0-1.25-.5-2.25-1.38-3.25-1.75-1.75-4.87-2.63-9.38-2.63s-7.63.87-9.38,2.75c-.88,1-1.38,2.25-1.38,3.62,0,1.25.5,2.25,1.38,3,1.75,1.63,4.87,2.37,9.38,2.37,3,.25,5.62-.25,7.63-1.25h0Zm-24.75-12.5h6.38v2.5c1.38-.75,2.75-1.25,4.38-1.63,2.25-.62,4.87-.87,7.87-.87,4.5,0,8.25.62,11.25,2,3.12,1.38,4.63,3.25,4.63,5.75,0,3.37-2.25,5.75-6.62,7.25-2.87.87-6.12,1.38-9.87,1.38-3,0-5.5-.25-7.37-.75-1.12-.25-2.5-.75-4-1.5v7.88h-6.62v-22" style="fill: #231f20;"/>
    <path id="uuid-76e4917c-87dc-4a21-9729-467188457c40" data-name="path112" d="m285.5,92.25c2.63.5,4.63,1.12,6,2,1.38.75,2.25,1.75,2.63,2.75.37.75.62,1.88.62,3.37h-28.75c.13,1.63,1.12,2.88,2.87,3.75,1.75,1,4.5,1.38,8.12,1.38s6.12-.5,8.25-1.38c1.12-.5,2-1.12,2.5-1.88h6.5c-.13.62-.75,1.25-1.75,1.88-1,.75-2,1.25-3.25,1.75-2,.75-4.5,1.25-7.37,1.63-1.62.13-3.38.25-5.37.25-4.87,0-9-.75-12.37-2.12-3.38-1.38-5.13-3.37-5.13-5.87s1.75-4.5,5.13-6.12c3.38-1.5,7.87-2.37,13.38-2.37,2.75.12,5.37.5,8,1h0Zm2.5,6c-.25-1.12-.88-2-1.88-2.75-1.75-1.25-4.75-1.88-9-1.88-3,0-5.62.38-7.63,1.25s-3.12,2-3.25,3.25l21.75.12" style="fill: #231f20;"/>
    <path id="uuid-d7b9756d-8769-442b-95f7-f2e6b8051cf6" data-name="path116" d="m309.75,91.5l7.75,12.63,7.63-12.63h7.37l7.63,12.5,8.25-12.5h6.62l-11.62,16.25h-6.88l-8-12.5-7.75,12.5h-6.88l-11.5-16.25h7.37" style="fill: #231f20;"/>
    <path id="uuid-bcd87dd3-1c75-4d34-a355-15b502bd6d27" data-name="path120" d="m373.75,105c1.38.38,3,.62,5,.62,2.25,0,4.5-.25,6.75-.62,3.62-.75,5.5-1.88,5.5-3.5v-2.12c-.88.25-1.88.38-3.12.5-1.25.13-2.5.25-3.75.25l-4,.25c-2.37.13-4.25.38-5.37.62-2,.5-3,1.12-3,2.12-.13.75.62,1.38,2,1.88h0Zm13.88-7.12c1.5-.13,2.5-.38,3-.75.25-.25.37-.62.37-1,0-.87-.88-1.5-2.37-1.88-1.62-.38-3.88-.62-6.88-.62-3.5,0-5.88.38-7.37,1.12-.88.38-1.38,1-1.62,1.88h-6.12c.13-1.88,1.75-3.25,4.75-4,3-.75,6.5-1.12,10.5-1.12,4.63,0,8.38.38,11.25,1,2.87.75,4.25,1.75,4.25,3.25v8.87c0,.25.13.5.37.62.25.13.88.25,1.88.25h1c.37,0,.75,0,1.12-.13v1.88c-1,.13-1.88.25-2.37.25h-2.25c-2.25,0-3.88-.38-5-1-.5-.38-.88-.87-1.12-1.38-1.38.75-3.25,1.25-5.75,1.75s-5.25.75-8.38.75c-3.62,0-6.62-.38-8.88-1.25-2.25-.87-3.5-2-3.5-3.25,0-1.5,1.12-2.5,3.38-3.37,2.25-.75,5.25-1.25,8.88-1.5l10.88-.37" style="fill: #231f20;"/>
    <path id="uuid-8a3472c6-2917-4218-862a-7269423b0494" data-name="path124" d="m438.62,91.5h7.25c-.88,1-3.25,3.62-6.5,7.12-2.37,2.63-4.38,4.87-6,6.5-3.75,4-6.5,6.38-8.12,7.25s-4.25,1.25-8.12,1.25h-2.13c-.5,0-1.12-.13-1.88-.13v-2.37c1.12.13,2,.25,2.5.25h1.38c1.25,0,2.13-.13,2.63-.25.62-.13,1.12-.38,1.5-.62.13-.13.62-.5,1.38-1.25s1.25-1.25,1.62-1.63l-14.75-16.12h7.5l10.88,13,10.87-13" style="fill: #231f20;"/>
    <path id="uuid-7248807a-5fad-4e35-b6c0-91fc95e339d2" data-name="path128" d="m458.5,102.38c.25.87.75,1.5,1.62,2,1.62.87,4.5,1.25,8.63,1.25,2.5,0,4.63-.25,6.5-.62s2.75-1.12,2.75-2c0-.62-.75-1.12-2.25-1.5-1-.25-2.87-.5-5.62-.75l-5.25-.5c-3.38-.38-5.88-.75-7.37-1.12-2.75-.75-4.25-1.63-4.25-2.88,0-1.5,1.38-2.63,4-3.62,2.75-.87,6.25-1.38,10.75-1.38,6,0,10.25.62,12.75,2,1.62.87,2.5,1.75,2.38,2.88h-6.25c-.12-.62-.62-1.12-1.62-1.63-1.5-.62-4.12-1-7.87-1-2.5,0-4.38.25-5.75.62-1.25.38-1.88.87-1.88,1.5s.88,1.25,2.5,1.63c1,.25,2.38.5,4.25.62l4.38.38c4.75.5,7.87.87,9.5,1.38,2.5.62,3.87,1.75,3.87,3.12s-1.37,2.63-4,3.62c-2.62,1-6.62,1.5-12.13,1.5-5.88,0-10-.5-12.5-1.63-2.37-1-3.75-2.37-3.88-3.88h6.75" style="fill: #231f20;"/>
  </g>
</svg>