<?xml version="1.0" encoding="UTF-8"?>
<svg id="uuid-66f5f385-db70-4a62-8d14-d715652960f8" data-name="svg3292" xmlns="http://www.w3.org/2000/svg" width="789.51" height="185.11" viewBox="0 0 789.51 185.11">
  <g id="uuid-e666f165-d376-461f-80d2-3544e8c7c87a" data-name="layer1">
    <path id="uuid-925f4df4-9ddd-4959-8078-ef6629b2b8b7" data-name="path148" d="m17.44,138.37c-1.13-1.35-2.13-2.62-3.06-3.91v50.65l42.64-23.1c-1.56-.34-3.13-.72-4.73-1.19-19.1-5.52-30.74-17.55-34.84-22.46m114.5-25.9c-.96,1.09-1.98,2.13-3.05,3.12.13,1.18.22,2.33.28,3.47.97-2.01,1.91-4.21,2.76-6.59m-104.56-19.22c-1.84-3.2-3.41-6.56-4.64-10.05h0c-3.42-9.75-3.96-19.56-1.72-28.61-1.64,2.32-3.22,4.86-4.62,7.65h0c-.8,1.57-1.44,3.02-2.03,4.42v46.96c2.63-6.62,7.12-13.56,13.01-20.37m71.02,26.43c7.82-1.1,14.69-3.83,20.32-7.87-1.4-6.66-4.04-13.79-7.76-20.95-3.58,2-7.65,3.39-12.12,4.02-15.06,2.1-31.02-4.96-40.37-16.63-7.11,4.98-13.65,10.45-19.21,16.07,13.16,17.66,36.82,28.48,59.14,25.36m15.24-43.84c3.06-5.04,3.54-11.25,1.35-17.5h0c-.18-.54-.42-1.06-.64-1.59-4.31-.08-9.37.58-14.92,1.97,5.28,5.56,9.94,11.47,13.92,17.52.1-.14.19-.27.29-.4M35.39,28.87c4.97-2.75,9.71-5.36,18.16-7.67L14.38,0v47.86c9.01-12.06,19.54-18.17,21.01-18.99m62.16,56.72c3.24-.45,6.17-1.44,8.74-2.85-4.67-7.34-10.4-14.47-16.97-20.89-1.12.41-2.24.84-3.38,1.3-6.68,2.7-13.3,6.1-19.63,9.97,7.35,8.81,19.63,14.09,31.24,12.47m-36.53-21.6c.13.36.29.7.43,1.05,6.42-3.87,13.14-7.33,20.02-10.18-5.73-4.63-11.52-8.31-17.12-10.99-.72.82-1.41,1.68-1.97,2.62-3.07,5.04-3.55,11.24-1.36,17.49h0m-26.87,22.05c5.69-5.57,12.23-10.93,19.3-15.82-.46-1.02-.9-2.05-1.28-3.12t0,0c-3.13-8.94-2.35-18,2.21-25.46.27-.45.58-.84.88-1.28-5.2-1.51-10.04-2.01-14.26-1.4-2.62,2.35-4.92,5.01-6.77,8.04-3.44,5.64-5.18,12.06-5.18,18.78,0,4.69.84,9.52,2.54,14.36.71,2.02,1.6,4,2.56,5.92m65.55,42.9c-24.95,3.48-51.42-8.22-66.82-27.6-5.79,7-9.82,13.99-11.26,20.21-.58,2.44-.68,4.6-.4,6.47,1.02,1.39,2.13,2.8,3.4,4.33,3.57,4.26,13.64,14.68,30.26,19.48,5.87,1.7,11.39,2.39,16.32,2.49l48.05-26.03c.37-1.9.59-3.93.61-6.05-5.91,3.38-12.7,5.67-20.16,6.71m-21.24-92.23c-1.82.27-3.55.68-5.17,1.24,6.1,3.43,12.29,7.86,18.31,13.21,4.21-1.3,8.22-2.24,12.01-2.85l-21.9-11.86c-1.08,0-2.18.11-3.26.25m61.84,80.18l44.95-24.34-43.75-23.71c6.15,19.22,3.44,35.83-1.2,48.05M64.79,28.55h-.67c-3.14.45-6.12,1.18-8.95,2.15,2.44.56,4.91,1.34,7.43,2.28,1.97-1.36,4.13-2.48,6.44-3.39l-2.3-1.23c-.64.08-1.32.08-1.96.18m56.84,52.18c-.91,1.49-1.97,2.83-3.11,4.12,3.52,6.49,6.24,13.01,8.06,19.35.72-.96,1.43-1.92,2.06-2.96,5.71-9.37,6.7-20.82,2.89-32.34-.26-.37-.49-.76-.65-1.19-.33-.97-.76-1.92-1.16-2.87-.44-.41-.8-.91-1.04-1.48-.38-.83-.86-1.57-1.45-2.22l-2.15-1.17c1.45,7.36.31,14.59-3.44,20.75M13.91,114.75c-2.05-5.05-3.52-11.34-3.81-13.77q-.67-5.83-.73-11.59c-.02-1.79.19-4.42.5-6.38.73-4.51,1.59-9.53,4.5-16.34v-18.8c-2.27,3.02-4.43,6.39-6.33,10.17-5.28,10.47-6.51,17.98-7.41,23.46C.23,84.02-.02,87.15,0,89.48c.06,6.19.06,6.31.8,12.57.44,3.78,2.52,12.23,5.3,18.23,2.15,4.69,4.14,8.32,6.56,11.85.2.38.44.72.72,1.02.31.44.66.87.99,1.31v-20.85c-.15.38-.33.76-.46,1.13M69.49,28.12h1.54c.94,0,1.88-.01,2.82.01-1.67.38-3.26.92-4.8,1.52l12.67,6.87c9.92-.32,19.94,4.11,26.66,11.23-1.55.15-3.14.37-4.77.63l21.47,11.63c-.06-.24-.08-.48-.13-.72.89.55,1.64,1.17,2.28,1.89l14.27,7.72c-.19-.54-.32-1.08-.5-1.62-.11-.31-.25-.6-.43-.89-.15-.45-.27-.9-.43-1.36-4.12-11.73-12-22.03-22-29.91-.26-.38-.57-.73-.95-1.02-15.36-11.9-30.8-14.59-38.63-15.15-.42,0-.81,0-1.22-.08-4.71-.37-9.46-.27-14.15.39-.28,0-.56.1-.84.13-2.01.28-3.77.61-5.17.93-1.29.3-2.49.61-3.62.91l13.21,7.16c.92-.09,1.84-.2,2.74-.25m49.76,100.16c-.42,2.2-1.08,4.26-2.03,6.09-.32.63-.49,1.31-.51,1.96-1.4,1.39-2.39,2.23-2.67,2.48-7.67,6.41-13.67,9.75-22.97,12.77-3.44,1.11-10.6,2.95-19.87,2.74l-14.19,7.69c17.25,3.76,31.37.28,36.94-1.52,10.44-3.38,17.52-7.31,26.08-14.5,1.73-1.44,10.75-9.31,16.97-21.64,1.15-2.25,2.27-4.74,3.29-7.46l-21.05,11.39m-101.81,10.08c-1.13-1.35-2.13-2.62-3.06-3.91v50.65l42.64-23.1c-1.56-.34-3.13-.72-4.73-1.19-19.1-5.52-30.74-17.55-34.84-22.46m114.5-25.9c-.96,1.09-1.98,2.13-3.05,3.12.13,1.18.22,2.33.28,3.47.97-2.01,1.91-4.21,2.76-6.59m-104.56-19.22c-1.84-3.2-3.41-6.56-4.64-10.05h0c-3.42-9.75-3.96-19.56-1.72-28.61-1.64,2.32-3.22,4.86-4.62,7.65h0c-.8,1.57-1.44,3.02-2.03,4.42v46.96c2.63-6.62,7.12-13.56,13.01-20.37m71.02,26.43c7.82-1.1,14.69-3.83,20.32-7.87-1.4-6.66-4.04-13.79-7.76-20.95-3.58,2-7.65,3.39-12.12,4.02-15.06,2.1-31.02-4.96-40.37-16.63-7.11,4.98-13.65,10.45-19.21,16.07,13.16,17.66,36.82,28.48,59.14,25.36m15.24-43.84c3.06-5.04,3.54-11.25,1.35-17.5h0c-.18-.54-.42-1.06-.64-1.59-4.31-.08-9.37.58-14.92,1.97,5.28,5.56,9.94,11.47,13.92,17.52.1-.14.19-.27.29-.4M35.39,28.87c4.97-2.75,9.71-5.36,18.16-7.67L14.38,0v47.86c9.01-12.06,19.54-18.17,21.01-18.99m62.16,56.72c3.24-.45,6.17-1.44,8.74-2.85-4.67-7.34-10.4-14.47-16.97-20.89-1.12.41-2.24.84-3.38,1.3-6.68,2.7-13.3,6.1-19.63,9.97,7.35,8.81,19.63,14.09,31.24,12.47m-36.53-21.6c.13.36.29.7.43,1.05,6.42-3.87,13.14-7.33,20.02-10.18-5.73-4.63-11.52-8.31-17.12-10.99-.72.82-1.41,1.68-1.97,2.62-3.07,5.04-3.55,11.24-1.36,17.49h0m-26.87,22.05c5.69-5.57,12.23-10.93,19.3-15.82-.46-1.02-.9-2.05-1.28-3.12t0,0c-3.13-8.94-2.35-18,2.21-25.46.27-.45.58-.84.88-1.28-5.2-1.51-10.04-2.01-14.26-1.4-2.62,2.35-4.92,5.01-6.77,8.04-3.44,5.64-5.18,12.06-5.18,18.78,0,4.69.84,9.52,2.54,14.36.71,2.02,1.6,4,2.56,5.92m65.55,42.9c-24.95,3.48-51.42-8.22-66.82-27.6-5.79,7-9.82,13.99-11.26,20.21-.58,2.44-.68,4.6-.4,6.47,1.02,1.39,2.13,2.8,3.4,4.33,3.57,4.26,13.64,14.68,30.26,19.48,5.87,1.7,11.39,2.39,16.32,2.49l48.05-26.03c.37-1.9.59-3.93.61-6.05-5.91,3.38-12.7,5.67-20.16,6.71m-21.24-92.23c-1.82.27-3.55.68-5.17,1.24,6.1,3.43,12.29,7.86,18.31,13.21,4.21-1.3,8.22-2.24,12.01-2.85l-21.9-11.86c-1.08,0-2.18.11-3.26.25m61.84,80.18l44.95-24.34-43.75-23.71c6.15,19.22,3.44,35.83-1.2,48.05M64.79,28.55h-.67c-3.14.45-6.12,1.18-8.95,2.15,2.44.56,4.91,1.34,7.43,2.28,1.97-1.36,4.13-2.48,6.44-3.39l-2.3-1.23c-.64.08-1.32.08-1.96.18m56.84,52.18c-.91,1.49-1.97,2.83-3.11,4.12,3.52,6.49,6.24,13.01,8.06,19.35.72-.96,1.43-1.92,2.06-2.96,5.71-9.37,6.7-20.82,2.89-32.34-.26-.37-.49-.76-.65-1.19-.33-.97-.76-1.92-1.16-2.87-.44-.41-.8-.91-1.04-1.48-.38-.83-.86-1.57-1.45-2.22l-2.15-1.17c1.45,7.36.31,14.59-3.44,20.75M13.91,114.75c-2.05-5.05-3.52-11.34-3.81-13.77q-.67-5.83-.73-11.59c-.02-1.79.19-4.42.5-6.38.73-4.51,1.59-9.53,4.5-16.34v-18.8c-2.27,3.02-4.43,6.39-6.33,10.17-5.28,10.47-6.51,17.98-7.41,23.46C.23,84.02-.02,87.15,0,89.48c.06,6.19.06,6.31.8,12.57.44,3.78,2.52,12.23,5.3,18.23,2.15,4.69,4.14,8.32,6.56,11.85.2.38.44.72.72,1.02.31.44.66.87.99,1.31v-20.85c-.15.38-.33.76-.46,1.13M69.49,28.12h1.54c.94,0,1.88-.01,2.82.01-1.67.38-3.26.92-4.8,1.52l12.67,6.87c9.92-.32,19.94,4.11,26.66,11.23-1.55.15-3.14.37-4.77.63l21.47,11.63c-.06-.24-.08-.48-.13-.72.89.55,1.64,1.17,2.28,1.89l14.27,7.72c-.19-.54-.32-1.08-.5-1.62-.11-.31-.25-.6-.43-.89-.15-.45-.27-.9-.43-1.36-4.12-11.73-12-22.03-22-29.91-.26-.38-.57-.73-.95-1.02-15.36-11.9-30.8-14.59-38.63-15.15-.42,0-.81,0-1.22-.08-4.71-.37-9.46-.27-14.15.39-.28,0-.56.1-.84.13-2.01.28-3.77.61-5.17.93-1.29.3-2.49.61-3.62.91l13.21,7.16c.92-.09,1.84-.2,2.74-.25m49.76,100.16c-.42,2.2-1.08,4.26-2.03,6.09-.32.63-.49,1.31-.51,1.96-1.4,1.39-2.39,2.23-2.67,2.48-7.67,6.41-13.67,9.75-22.97,12.77-3.44,1.11-10.6,2.95-19.87,2.74l-14.19,7.69c17.25,3.76,31.37.28,36.94-1.52,10.44-3.38,17.52-7.31,26.08-14.5,1.73-1.44,10.75-9.31,16.97-21.64,1.15-2.25,2.27-4.74,3.29-7.46l-21.05,11.39M185.89,18.65v28.22h32.91v117.41h36.81V46.87h32.94v-28.22h-102.66Zm161.59.38v29.53h33.22v-29.53h-33.22Zm191.72.66v145.59h17.19l6.16-14.72c6.54,9.83,14.92,15.94,27.81,15.94,27.81,0,37.62-30.28,37.62-53.78,0-29.65-12.25-52.53-35.19-52.53-6.72,0-15.34,3.45-20.03,8.38h-.41V19.69h-33.16Zm97.41,0v145.59h33.12V19.69h-33.12Zm87.34,37.41c-30.47,0-45.59,24.54-45.59,53.59s14.31,53.97,46,53.97c29.47,0,39.7-23.29,41.12-28.03l-22.28-8.19c-2.06,8.41-8.8,14.16-16.78,14.16-13.12,0-14.94-15.35-14.94-24.38h55.44v-6.94c0-26.77-11.05-54.19-42.97-54.19Zm-385.12,3.09c-13.08,0-27.8,5.08-31.88,17.97h-.44v-15.53h-32.5v102.66h33.12v-66.44c3.7-5.12,7.17-8,18.22-8,4.71,0,8.96,1.23,13.47,2.88v-33.53Zm115.84,0c-11.87,0-22.28,5.68-29.25,16.12h-.41v-13.69h-33.12v102.66h33.12v-75.06l1.84-2.44c2.27-2.87,5.13-4.28,8.59-4.28,6.15,0,7.97,3.69,7.97,9.19v72.59h33.12v-75.06l1.84-2.44c2.26-2.87,5.09-4.28,8.59-4.28,6.12,0,7.97,3.69,7.97,9.19v72.59h33.12v-83.22c0-14.72-9.82-21.88-23.09-21.88-11.87,0-22.28,5.68-29.25,16.12h-.41c-.62-9.84-10.63-16.12-20.66-16.12Zm-107.12,2.44v102.66h33.16V62.62h-33.16Zm376.22,15.31c11.47,0,12.27,11.06,12.47,20.66h-24.75c0-9.59,2.88-20.66,12.28-20.66Zm-140.34.62c10.22,0,10.19,10.64,10.19,31.09v7.78c0,19-1.21,28.22-10.41,28.22-6.32,0-11.44-4.7-10.84-13.28v-47.88l1.84-1.81c2.04-1.65,5.12-4.12,9.22-4.12Zm-429.47,67.84c-5,0-9.06,3.91-9.06,8.72s4.06,8.84,9.06,8.84,9-3.94,9-8.84-4.01-8.72-9-8.72Zm626.59,1c-5.01,0-9.06,3.94-9.06,8.75s4.05,8.84,9.06,8.84,8.97-3.95,8.97-8.84-3.99-8.75-8.97-8.75Zm-626.59.72c4.02,0,7.31,3.1,7.31,7s-3.29,7.12-7.31,7.12-7.34-3.12-7.34-7.12,3.25-7,7.34-7Zm626.59,1.03c4.02,0,7.28,3.11,7.28,7s-3.26,7.12-7.28,7.12-7.34-3.12-7.34-7.12,3.24-7,7.34-7Zm-629.97,1.09v9.84h1.5v-4.53h1.75l2.91,4.53h1.72l-3.06-4.53c1.81-.03,3.19-.76,3.19-2.72,0-.81-.39-1.7-1.12-2.12-.77-.4-1.63-.47-2.47-.47h-4.41Zm626.56,1.03v9.84h1.5v-4.53h1.78l2.91,4.53h1.72l-3.06-4.53c1.8-.05,3.16-.76,3.16-2.72,0-.81-.35-1.69-1.09-2.12-.76-.4-1.62-.47-2.47-.47h-4.44Zm-625.06.09h2.62c1.26,0,2.38.16,2.38,1.44,0,1.77-1.95,1.53-3.38,1.53h-1.62v-2.97Zm626.56,1.03h2.62c1.27,0,2.41.15,2.41,1.44,0,1.75-1.98,1.5-3.41,1.5h-1.62v-2.94Z" style="fill: #005596;"/>
  </g>
</svg>